<mxfile host="app.diagrams.net" modified="2024-07-03T02:01:28.746Z" agent="Mozilla/5.0 (Windows NT 10.0; Win64; x64) AppleWebKit/537.36 (KHTML, like Gecko) Chrome/97.0.4692.99 Safari/537.36" version="24.6.4" etag="c2RMdt8gQwWz87BnB52u" type="github">
  <diagram name="페이지-1" id="phko66TLBXLbnp6lr9LW">
    <mxGraphModel>
      <root>
        <mxCell id="0" />
        <mxCell id="1" parent="0" />
      </root>
    </mxGraphModel>
  </diagram>
</mxfile>
